<?xml version="1.0" encoding="utf-8"?><svg xmlns="http://www.w3.org/2000/svg" xmlns:xlink="http://www.w3.org/1999/xlink"><symbol viewBox="0 0 779 753" id="balloon" xmlns="http://www.w3.org/2000/svg"><path d="M162.34 262.463c.19-8.17-6.294-14.943-14.464-15.125-7.979-.198-14.943 6.286-15.133 14.464-.785 34.958 4.7 72.998 16.314 113.045 1.875 6.476 7.79 10.689 14.208 10.689 1.362 0 2.75-.19 4.13-.596 7.847-2.271 12.366-10.481 10.094-18.338-10.771-37.147-15.868-72.188-15.149-104.139zm55.28-159.287c-6.757 4.668-13.737 10.565-21.354 18.033-5.832 5.725-5.923 15.1-.198 20.932a14.743 14.743 0 0 0 10.564 4.436c3.743 0 7.493-1.403 10.368-4.237 6.394-6.27 12.093-11.11 17.437-14.795 6.725-4.642 8.418-13.86 3.775-20.593-4.65-6.725-13.868-8.418-20.592-3.776zm140.163 144.162c-8.178.174-14.654 6.947-14.481 15.116.231 10.4-.141 21.098-1.091 31.795-.718 8.137 5.295 15.332 13.44 16.05.446.041.884.059 1.321.059 7.583 0 14.043-5.791 14.729-13.489 1.049-11.779 1.454-23.576 1.198-35.058-.181-8.179-7.128-14.679-15.116-14.473z"/><path d="M708.527 144.825c-17.281-33.769-51.645-55.064-90.201-55.064-51.678 0-94.467 38.825-100.721 88.834-17.279.396-32.678 8.517-42.896 21.022C441.404 110.734 355.61 47.286 255.246 47.286c-129.186 0-234.283 105.105-234.283 234.3 0 79.573 33.133 122.511 71.503 172.238 10.259 13.3 20.865 27.054 31.579 42.386 18.983 27.185 75.922 135.198 76.492 136.289l.892 1.692a14.7 14.7 0 0 0-2.593 8.36v46.97c-.017.445-.133.858-.133 1.304v27.633c0 18.892 15.364 34.256 34.248 34.256h42.417c18.884 0 34.248-15.364 34.248-34.256v-27.633c0-.768-.174-1.485-.223-2.246v-46.027c0-2.247-.537-4.354-1.437-6.262l1.999-3.791c.578-1.091 57.509-109.096 76.5-136.281 10.714-15.34 21.328-29.094 31.588-42.394 37.883-49.107 70.602-91.666 71.42-169.339 8.617 5.221 18.678 8.285 29.473 8.285 15.977 0 30.961-6.749 41.576-18.074 16.875 11.747 36.883 18.074 57.814 18.074 16.496 0 32.57-3.973 47.047-11.564a73.858 73.858 0 0 0 39.65 11.564c40.807 0 74.014-33.198 74.014-74.014 0-39.633-31.322-72.097-70.51-73.931zm-403.71 434.443a5297.537 5297.537 0 0 0-16.876 31.53h-65.39c-3.8-7.162-9.896-18.603-17.033-31.818l99.299.288zm-25.029 77.756c-1.462-.19-2.908-.447-4.419-.447h-42.417c-1.544 0-3.023.257-4.511.456v-14.481c0-.735-.115-1.445-.222-2.147h51.785c-.108.702-.215 1.412-.215 2.147v14.472zm-4.42 66.083h-42.417a4.648 4.648 0 0 1-4.642-4.649v-2.636c.033-.438.131-.868.131-1.313v-24.336c.331-2.237 2.181-3.989 4.511-3.989h42.417c2.164 0 3.899 1.52 4.419 3.52v24.806c0 .776.107 1.512.223 2.254v1.695a4.647 4.647 0 0 1-4.642 4.648zM394.6 435.743c-10.467 13.571-21.296 27.605-32.415 43.516-9.12 13.052-25.682 42.17-41.252 70.454l-28.887-.084c8.599-26.829 19.23-53.503 29.671-79.391 15.835-39.253 32.208-79.846 41.872-122.47 1.809-7.971-3.188-15.901-11.167-17.702-7.972-1.817-15.902 3.188-17.703 11.16-9.135 40.303-25.062 79.771-40.459 117.942-11.788 29.226-23.906 59.427-33.273 90.369l-16.339-.049c-9.368-31.034-21.271-60.5-32.844-88.999-5.105-12.571-10.202-25.136-15.092-37.84-2.933-7.634-11.516-11.44-19.132-8.501-7.624 2.941-11.432 11.499-8.5 19.132 4.956 12.87 10.119 25.606 15.298 38.345 10.21 25.153 20.602 51.1 29.159 77.772l-24.178-.065c-15.513-28.17-31.968-57.081-41.046-70.074-11.11-15.91-21.94-29.944-32.415-43.516-37.932-49.158-65.332-84.679-65.332-154.157 0-112.871 91.815-204.694 204.678-204.694S459.93 168.714 459.93 281.585c.002 69.472-27.399 104.991-65.33 154.158zm310.423-172.578c-10.639 0-20.947-3.857-29.025-10.871a14.81 14.81 0 0 0-17.91-1.147 71.544 71.544 0 0 1-39.762 12.019c-19 0-36.924-7.36-50.48-20.734a14.796 14.796 0 0 0-23.888 4.469c-4.451 9.879-14.273 16.265-25.021 16.265-15.156 0-27.49-12.333-27.49-27.491 0-15.157 12.334-27.49 27.49-27.49 2.52 0 5.172.479 8.359 1.512a14.847 14.847 0 0 0 13.549-2.338 14.804 14.804 0 0 0 5.783-12.474l-.109-1.768c-.041-.611-.09-1.231-.09-1.851 0-39.642 32.248-71.898 71.898-71.898 29.82 0 56.102 17.999 66.939 45.854 2.412 6.187 8.672 9.971 15.266 9.359a44.578 44.578 0 0 1 4.492-.231c24.484 0 44.41 19.924 44.41 44.408 0 24.491-19.926 44.407-44.411 44.407z"/></symbol><symbol viewBox="0 0 44 39" id="book" xmlns="http://www.w3.org/2000/svg"><path fill-rule="evenodd" clip-rule="evenodd" d="M28.408 10.427A71.385 71.385 0 0 0 24 11.24a71.371 71.371 0 0 0-4.408-.813c1.245.49 2.51 1.077 3.845 1.722a.998.998 0 0 1 .563.898c0-.383.218-.732.563-.898 1.335-.645 2.6-1.233 3.845-1.722zM24 35.401c0 .578-.473 1-1 1.007v.197c-6.269-1.061-10.698-1.128-17-.022v-23.55a52.298 52.298 0 0 1 2-.417v-2.033c-1.026.184-2.1.412-3.243.688a.991.991 0 0 0-.757.965v25.539c0 .633.583 1.105 1.204.987 7.076-1.35 11.525-1.27 18.604.015a1.064 1.064 0 0 0 .384 0c7.079-1.285 11.528-1.365 18.604-.015A1.012 1.012 0 0 0 44 37.775V12.237a.991.991 0 0 0-.757-.966A55.778 55.778 0 0 0 40 10.583v2.033c.644.12 1.308.26 2 .417v23.55c-6.302-1.106-10.731-1.04-17 .022v-.197c-.527-.008-1-.43-1-1.007z"/><path fill-rule="evenodd" clip-rule="evenodd" d="M9 10.507v22.548a.023.023 0 0 0 .007.008.064.064 0 0 0 .053.013c5.34-.98 9.353.22 13.915 2.33a.03.03 0 0 0 .008.002h.002a.027.027 0 0 0 .012-.004.02.02 0 0 0 .003-.002V13.048c-4.98-2.404-8.734-3.88-14-2.541zm14 2.541zM8.474 8.577c6.019-1.541 10.347.232 15.398 2.671a1.998 1.998 0 0 1 1.128 1.8V35.4c0 1.487-1.547 2.428-2.864 1.82-4.38-2.025-7.95-3.052-12.715-2.177C8.211 35.266 7 34.364 7 33.055V10.492c0-.88.583-1.687 1.474-1.915z"/><path fill-rule="evenodd" clip-rule="evenodd" d="M39 10.507v22.548a.02.02 0 0 1-.008.008.064.064 0 0 1-.052.013c-5.34-.98-9.352.22-13.915 2.33a.03.03 0 0 1-.008.002h-.002a.027.027 0 0 1-.012-.004L25 35.4V13.047c4.98-2.404 8.734-3.88 14-2.54zm-14 2.54zm14.526-4.47c-6.019-1.541-10.347.232-15.398 2.671a2 2 0 0 0-1.128 1.8v22.354c0 1.487 1.547 2.428 2.864 1.819 4.38-2.025 7.95-3.052 12.715-2.177 1.21.222 2.421-.679 2.421-1.989V10.492a1.97 1.97 0 0 0-1.474-1.915zM11.01 29.003c3.67-.038 5.717.332 9.612 1.923l.756-1.852c-4.127-1.685-6.438-2.112-10.388-2.071l.02 2zm0-4c3.67-.038 5.717.332 9.612 1.923l.756-1.852c-4.127-1.685-6.438-2.112-10.388-2.071l.02 2zm0-4c3.67-.038 5.717.332 9.612 1.923l.756-1.852c-4.127-1.685-6.438-2.112-10.388-2.071l.02 2zM13.5 13v3h-2v-3h2zm3.5 1v3h-2v-3h2zm3.5 1v3h-2v-3h2z"/><path fill-rule="evenodd" clip-rule="evenodd" d="M36.99 29.003c-3.67-.038-5.717.332-9.612 1.923l-.756-1.852c4.127-1.685 6.438-2.112 10.388-2.071l-.02 2zm0-4c-3.67-.038-5.717.332-9.612 1.923l-.756-1.852c4.127-1.685 6.438-2.112 10.388-2.071l-.02 2zm0-4c-3.67-.038-5.717.332-9.612 1.923l-.756-1.852c4.127-1.685 6.438-2.112 10.388-2.071l-.02 2zM34.5 13v3h2v-3h-2zM31 14v3h2v-3h-2zm-3.5 1v3h2v-3h-2z"/></symbol><symbol viewBox="0 0 22 23" id="koleso" xmlns="http://www.w3.org/2000/svg"><path d="M12 19c.86 0 1.59.54 1.87 1.29.55-.12 1.08-.29 1.59-.52l-1.76-4.15c-.52.25-1.09.38-1.7.38-.61 0-1.18-.13-1.7-.38l-1.76 4.15c.51.23 1.04.4 1.59.52.28-.75 1.01-1.29 1.87-1.29m6.25-1.24c-.25-.34-.44-.76-.44-1.26 0-1.09.9-2 2-2l.31.03c.25-.8.38-1.65.38-2.53 0-.88-.13-1.73-.38-2.5h-.31c-1.11 0-2-.89-2-2 0-.5.16-.91.44-1.26a8.474 8.474 0 0 0-4.38-2.53C13.59 4.46 12.86 5 12 5c-.86 0-1.59-.54-1.87-1.29a8.474 8.474 0 0 0-4.38 2.53c.28.35.45.79.45 1.26a2 2 0 0 1-2 2h-.32c-.25.78-.38 1.62-.38 2.5 0 .89.14 1.74.39 2.55l.31-.05c1.11 0 2 .92 2 2 0 .5-.16.93-.44 1.27.32.35.68.67 1.05.96l1.9-4.46C8.26 13.62 8 12.84 8 12a4 4 0 0 1 4-4 4 4 0 0 1 4 4c0 .84-.26 1.62-.71 2.27l1.9 4.46c.38-.29.73-.62 1.06-.97M12 23c-1 0-1.84-.74-2-1.71a9.51 9.51 0 0 1-1.85-.6L7.17 23H5l1.41-3.32a8.59 8.59 0 0 1-1.45-1.31c-.24.1-.49.13-.76.13a2 2 0 0 1-2-2c0-.62.3-1.18.77-1.55a9.49 9.49 0 0 1-.01-5.87A2.006 2.006 0 0 1 4.2 5.5c.26 0 .51.06.73.15A9.397 9.397 0 0 1 10 2.71C10.16 1.74 11 1 12 1s1.84.74 2 1.71c2 .42 3.74 1.47 5.06 2.93.23-.09.48-.14.75-.14a2 2 0 0 1 2 2 2 2 0 0 1-.77 1.57c.3.93.46 1.93.46 2.93 0 1-.16 2-.46 2.93.46.37.77.94.77 1.57 0 1.12-.89 2-2 2-.27 0-.52-.04-.76-.14-.44.49-.93.93-1.46 1.32L19 23h-2.17l-.98-2.31c-.6.26-1.22.47-1.85.6-.16.97-1 1.71-2 1.71z"/></symbol><symbol viewBox="0 0 64 64" id="logo" xmlns="http://www.w3.org/2000/svg"><path d="M9 19v30c0 .55.45 1 1 1h16.59l1.71 1.71c.19.19.44.29.71.29h6c.27 0 .52-.11.71-.29L37.43 50h16.59c.55 0 1-.45 1-1V19c0-.55-.45-1-1-1h-3v-2c0-.43-.28-.81-.68-.95l-5.32-1.77V13c0-.55-.45-1-1-1-5.4 0-10.04 3.31-12 8-1.96-4.69-6.6-8-12-8-.55 0-1 .45-1 1v.28l-5.32 1.77a1 1 0 0 0-.68.95v2h-3c-.55 0-1 .45-1 1zm41.62 24.79c.24-.19.38-.48.38-.79V20h2v28H37c-.27 0-.52.11-.71.29L34.58 50h-.82c5.63-8.43 15.55-6.14 15.99-6.03.3.07.61 0 .86-.19zM45 39V15.39l4 1.33v25.1c-2.83-.37-9.91-.62-15.09 4.8C35.61 42.73 39.49 40 44 40c.55 0 1-.45 1-1zM33 25c0-5.73 4.4-10.45 10-10.96v23.99c-4.21.32-7.86 2.66-10 6.05V25zM21 14.04c5.6.51 10 5.23 10 10.96v19.09c-2.14-3.39-5.79-5.73-10-6.05v-24zm-6 2.68 4-1.33V39c0 .55.45 1 1 1 4.51 0 8.39 2.73 10.09 6.62-5.18-5.42-12.26-5.17-15.09-4.8v-25.1zM11 20h2v23c0 .31.14.6.38.79.24.19.56.26.86.18.11-.03 10.31-2.42 15.99 6.03h-.82l-1.71-1.71a.99.99 0 0 0-.71-.29H11V20z"/></symbol><symbol viewBox="0 0 512.053 512.053" id="mapsmark" xmlns="http://www.w3.org/2000/svg"><path d="M365.027 44.5c-30-29.667-66.333-44.5-109-44.5s-79 14.833-109 44.5-45 65.5-45 107.5c0 25.333 12.833 67.667 38.5 127 25.667 59.334 51.333 113.334 77 162s38.5 72.334 38.5 71c4-7.334 9.5-17.334 16.5-30s19.333-36.5 37-71.5 33.167-67.166 46.5-96.5c13.334-29.332 25.667-59.667 37-91s17-55 17-71c0-42-15-77.833-45-107.5zm-76 139.5c-9.333 9.333-20.5 14-33.5 14s-24.167-4.667-33.5-14-14-20.5-14-33.5 4.667-24 14-33 20.5-13.5 33.5-13.5 24.167 4.5 33.5 13.5 14 20 14 33-4.667 24.167-14 33.5z"/></symbol><symbol id="monitor" viewBox="0 0 512 512" xml:space="preserve" xmlns="http://www.w3.org/2000/svg"><style>.fst0{fill:#232323}</style><path class="fst0" d="M455.1 0H56.9C31.7 0 11.3 20.5 11.3 45.6v325.5c0 25.1 20.5 45.6 45.6 45.6h188v71.7h-109c-6.2 0-11.1 5-11.1 11.1s5 11.1 11.1 11.1h240.3c6.2 0 11.1-5 11.1-11.1s-5-11.1-11.1-11.1h-109v-71.7h188c25.1 0 45.6-20.5 45.6-45.6V45.6C500.7 20.5 480.3 0 455.1 0zm0 394.4H56.9c-12.9 0-23.3-10.5-23.3-23.3v-31.2h46.2c6.2 0 11.1-5 11.1-11.1s-5-11.1-11.1-11.1H33.5V92h334.2c6.2 0 11.1-5 11.1-11.1 0-6.2-5-11.1-11.1-11.1H33.5V45.6c0-12.9 10.5-23.3 23.3-23.3h398.3c12.9 0 23.3 10.5 23.3 23.3v24.2H439c-6.2 0-11.1 5-11.1 11.1 0 6.2 5 11.1 11.1 11.1h39.5v225.5H149.3c-6.2 0-11.1 5-11.1 11.1s5 11.1 11.1 11.1h329.1v31.2c.1 13-10.4 23.5-23.3 23.5z"/><path class="fst0" d="M429.6 355h-61.9c-6.2 0-11.1 5-11.1 11.1 0 6.2 5 11.1 11.1 11.1h61.9c6.2 0 11.1-5 11.1-11.1s-5-11.1-11.1-11.1z"/></symbol><symbol viewBox="0 0 441.194 441.194" id="mouse" xmlns="http://www.w3.org/2000/svg"><path d="M432.464 140.252c-29.727 12.948-47.436-1.292-73.876-25.6-19.229-17.664-41.019-37.709-71.585-38.117-24.353-.34-43.672 6.757-57.391 21.02-10.045 10.453-15.056 22.902-17.709 33.559-30.77-20.793-72.697-17.8-99.725 9.206L22.86 229.66c-30.679 30.679-30.453 80.656.522 111.63s80.95 31.201 111.63.522l89.34-89.34c27.777-27.777 29.931-71.268 7.143-102.242.272-7.097 2.177-24.943 14.263-37.414 9.206-9.524 22.925-14.195 40.725-13.991 22.086.295 39.001 15.85 56.892 32.312 24.965 22.97 53.264 48.978 97.821 29.568l-8.732-20.453zM208.32 236.44l-89.317 89.317c-21.882 21.882-57.64 21.7-79.726-.385-22.086-22.086-22.267-57.822-.408-79.703l89.34-89.34c21.882-21.859 57.64-21.7 79.726.385s22.267 57.867.385 79.726zm-39.545-56.484-34.353 34.353c-3.764 3.764-3.288 10.476 1.156 14.898 4.422 4.422 11.133 4.898 14.898 1.156l34.33-34.375c3.764-3.764 3.288-10.453-1.134-14.898-4.421-4.422-11.133-4.898-14.897-1.134z"/></symbol><symbol viewBox="0 0 677 792" id="paint" xmlns="http://www.w3.org/2000/svg"><path d="M140.681 784.792a25.43 25.43 0 0 1-9.802-1.983c-13.578-5.798-19.68-22.121-13.578-36.423l114.685-272.238c2.06-4.882 7.704-7.17 12.51-5.11 4.844 2.059 7.132 7.627 5.073 12.471L134.845 753.784c-1.945 4.577-.381 9.84 3.433 11.48 3.852 1.602 8.62-.839 10.564-5.568L267.15 479.525c2.06-4.844 7.704-7.133 12.51-5.073 4.844 2.06 7.132 7.628 5.072 12.51L166.425 767.133c-4.577 10.984-15.027 17.659-25.744 17.659zm508.243.571c-3.585 0-7.132-.687-10.526-2.06-6.941-2.822-12.357-8.199-15.256-15.103L504.186 485.589c-2.06-4.844.229-10.412 5.072-12.472 4.92-2.136 10.45.268 12.51 5.111L640.724 760.84a8.577 8.577 0 0 0 4.844 4.806c2.251.915 4.653.839 6.903-.076 4.577-1.945 6.751-7.323 4.806-11.938L544.423 482.004c-2.021-4.844.267-10.412 5.148-12.434 4.806-2.098 10.412.229 12.472 5.149l112.854 271.589c5.95 14.227-.763 30.778-14.95 36.843-3.547 1.45-7.246 2.212-11.023 2.212zM394.993 792c-14.722 0-26.659-11.938-26.659-26.659V486.81c0-5.263 4.271-9.535 9.535-9.535s9.535 4.272 9.535 9.535v278.531c0 4.157 3.395 7.59 7.59 7.59 4.196 0 7.589-3.433 7.589-7.59V486.81c0-5.263 4.272-9.535 9.535-9.535 5.264 0 9.535 4.272 9.535 9.535v278.531c0 14.683-11.938 26.659-26.66 26.659z"/><path d="M619.633 489.479H170.391c-20.862 0-37.262-11.709-37.262-26.659 0-15.027 16.362-26.736 37.262-26.736h449.242c20.824 0 37.186 11.747 37.186 26.736 0 14.951-16.323 26.659-37.186 26.659zm-449.242-34.325c-11.099 0-18.192 5.034-18.192 7.666 0 2.212 6.369 7.59 18.192 7.59h449.242c11.747 0 18.116-5.416 18.116-7.59 0-2.632-7.056-7.666-18.116-7.666H170.391z"/><path d="M574.667 454.392H221.269c-5.263 0-9.535-4.272-9.535-9.535V81.923c0-5.263 4.272-9.535 9.535-9.535h353.398c5.263 0 9.534 4.272 9.534 9.535v362.933c.001 5.263-4.271 9.536-9.534 9.536zm-343.863-19.071h334.329V91.458H230.804v343.863z"/><path d="M379.928 90.886c-5.263 0-9.535-4.271-9.535-9.535V26.659C370.394 11.938 382.369 0 397.052 0c14.684 0 26.66 11.938 26.66 26.659v54.234c0 5.263-4.271 9.535-9.535 9.535s-9.535-4.271-9.535-9.535V26.659c.038-4.157-3.395-7.589-7.59-7.589s-7.589 3.432-7.589 7.589v54.692c0 5.263-4.272 9.535-9.535 9.535z"/><path d="M461.203 115.791H335.877c-4.195 0-7.628-3.433-7.628-7.628V84.326c0-4.195 3.433-7.628 7.628-7.628s7.628 3.433 7.628 7.628v16.209h110.069V84.326c0-4.195 3.433-7.628 7.628-7.628s7.628 3.433 7.628 7.628v23.837c.001 4.195-3.432 7.628-7.627 7.628zm145.654 593.6H414.94a9.52 9.52 0 0 1-9.535-9.191l-.877-25.516c-.076-2.594.877-5.11 2.67-6.979s4.271-2.898 6.865-2.898l181.771.457c3.775 0 7.17 2.251 8.696 5.684l11.06 25.019a9.53 9.53 0 0 1-.725 9.039 9.485 9.485 0 0 1-8.008 4.385zM424.131 690.32h168.08l-2.632-5.949-165.677-.42.229 6.369zm-47.712 19.071H187.821c-2.975 0-5.797-1.373-7.59-3.776-1.792-2.364-2.403-5.454-1.602-8.314l7.284-26.354c1.145-4.119 4.882-7.018 9.192-7.018h.038l180.398.877c5.111.038 9.306 4.081 9.497 9.191l.877 25.477c.076 2.556-.877 5.111-2.67 6.979a9.367 9.367 0 0 1-6.826 2.938zm-176.05-19.071H366.58l-.229-6.445-163.96-.801-2.022 7.246z"/></symbol></svg>